# xmcd
#
# Track frame offsets:
# 150
# 17116
# 31678
# 46756
# 61769
# 81371
# 94532
# 118124
# 136190
# 158219
# 175264
# 193743
#
# Disc length: 2839 seconds
#
#
# Revision: 0
# Processed by: cddbd v1.5.1PL0 Copyright (c) Steve Scherf et al.
# Submitted via: FreeRIP 2.91 
#
DISCID=900b150c
DTITLE=Robert Keith - Face the world
DYEAR=2004
DGENRE=Country
TTITLE0=A cowboy never cries
TTITLE1=I messed up
TTITLE2=Reflections
TTITLE3=Don't you cry
TTITLE4=Care too much
TTITLE5=Piece of me
TTITLE6=Just like magic [duet with natalie howard]
TTITLE7=Face the world
TTITLE8=Dad
TTITLE9=Still got a long way to go
TTITLE10=This time love
TTITLE11=Answers
EXTD=
EXTT0=
EXTT1=
EXTT2=
EXTT3=
EXTT4=
EXTT5=
EXTT6=
EXTT7=
EXTT8=
EXTT9=
EXTT10=
EXTT11=
PLAYORDER=
